<?xml version="1.0" standalone="no"?>
<!DOCTYPE svg PUBLIC "-//W3C//DTD SVG 20010904//EN"
 "http://www.w3.org/TR/2001/REC-SVG-20010904/DTD/svg10.dtd">
<svg version="1.0" xmlns="http://www.w3.org/2000/svg"
 width="612.000000pt" height="612.000000pt" viewBox="0 0 612.000000 612.000000"
 preserveAspectRatio="xMidYMid meet">

<g transform="translate(0.000000,612.000000) scale(0.100000,-0.100000)"
fill="#000000" stroke="none">
<path d="M4337 5214 c-4 -4 -7 -26 -7 -49 0 -117 -50 -297 -129 -467 -43 -92
-142 -267 -172 -307 l-19 -24 0 71 c0 111 -7 112 -57 15 -24 -49 -54 -100 -67
-116 l-22 -28 -88 42 c-48 22 -111 49 -139 59 -53 18 -56 23 -46 75 12 58
-436 109 -671 75 -482 -69 -904 -352 -1146 -769 -46 -80 -47 -84 -29 -97 10
-8 25 -14 33 -14 17 0 16 -1 -34 -130 -20 -52 -48 -142 -61 -200 -14 -58 -26
-110 -28 -116 -4 -12 -128 8 -257 40 -32 8 -58 11 -58 8 0 -3 16 -23 36 -44
27 -27 32 -36 18 -33 -220 50 -489 127 -543 155 -38 19 -111 92 -111 110 0 6
-7 10 -15 10 -37 0 -25 -129 20 -206 54 -93 179 -172 331 -210 58 -15 65 -19
44 -25 -43 -12 -203 -9 -255 5 -60 16 -92 31 -122 59 -17 15 -23 17 -24 6 -11
-148 102 -277 277 -320 27 -6 53 -15 58 -19 13 -12 -98 -25 -201 -23 -53 0
-93 -3 -93 -9 0 -23 33 -69 81 -112 49 -44 54 -46 110 -46 60 0 78 -13 37 -26
-22 -7 -22 -8 7 -20 17 -7 59 -16 94 -20 l64 -7 -47 -44 c-28 -26 -46 -51 -44
-61 2 -11 28 -25 75 -42 l71 -24 68 27 c37 15 69 25 71 24 1 -2 -2 -19 -7 -38
-6 -18 -10 -51 -10 -71 l0 -38 53 0 c44 0 58 4 77 25 27 28 40 32 40 10 0 -19
2 -19 47 0 45 19 43 20 43 -12 0 -16 5 -45 11 -66 10 -37 10 -37 62 -37 29 0
72 5 96 11 39 9 46 8 55 -8 5 -10 24 -33 42 -51 27 -27 39 -32 64 -28 28 4 41
-5 153 -118 205 -205 448 -345 697 -402 68 -15 68 -15 75 -54 4 -21 22 -71 41
-111 28 -59 37 -69 49 -59 11 9 28 -3 90 -65 l77 -77 27 32 26 32 21 -29 c12
-15 40 -41 63 -57 40 -28 44 -29 79 -16 20 7 49 21 63 31 26 18 26 18 50 -7
13 -14 47 -41 76 -60 63 -41 86 -39 144 16 35 33 41 35 66 25 49 -21 131 -37
152 -30 29 9 80 82 97 141 l14 51 60 -16 c43 -11 65 -13 78 -5 28 17 79 128
92 203 l13 70 67 -6 68 -6 11 35 c6 20 14 71 16 114 l4 79 32 1 c42 0 53 28
45 112 -7 84 -29 118 -98 153 -32 16 -58 31 -58 33 0 1 25 41 57 87 67 100
142 253 178 363 29 90 65 259 65 305 0 26 9 37 50 67 28 20 50 39 50 44 0 4
-16 28 -35 53 -39 51 -41 57 -21 57 23 0 188 86 225 117 l34 29 -17 32 c-9 18
-35 50 -57 71 -21 21 -39 41 -39 44 0 3 46 28 103 55 56 27 113 58 127 70 l25
20 -29 31 c-16 17 -63 48 -103 68 -68 35 -89 53 -62 53 21 0 179 79 179 89 0
6 -4 11 -10 11 -5 0 -10 6 -10 13 0 9 11 12 35 9 30 -4 43 4 110 58 41 35 75
68 75 75 0 19 -124 28 -243 18 -53 -5 -96 -5 -95 -1 2 4 41 38 88 76 162 131
283 301 296 418 10 79 -10 77 -98 -11 -95 -94 -305 -232 -324 -213 -3 4 28 48
69 100 66 83 170 238 183 273 4 10 -1 12 -17 8 -27 -7 -23 1 32 67 48 57 61
110 57 230 -4 123 -17 124 -80 8 -109 -201 -274 -396 -447 -525 -31 -24 -60
-43 -64 -43 -10 0 -8 3 62 105 101 148 170 326 186 480 11 105 -22 267 -58
289 -24 15 -47 -15 -47 -63 0 -130 -107 -365 -256 -564 -67 -89 -194 -230
-201 -223 -2 2 3 21 12 42 15 35 15 40 0 50 -14 10 -11 16 20 42 28 22 44 50
70 118 84 225 87 421 7 568 -27 49 -42 63 -55 50z m374 -455 c-51 -149 -136
-297 -247 -430 -58 -70 -163 -169 -179 -169 -4 0 20 30 53 68 120 137 249 326
337 495 27 52 51 94 53 93 1 -2 -6 -27 -17 -57z m-416 -81 c-24 -78 -75 -207
-103 -263 -36 -72 -138 -235 -147 -235 -3 0 47 104 111 232 64 127 120 242
125 255 9 24 22 33 14 11z m-955 -148 c105 -17 210 -41 210 -50 0 -4 -34 1
-75 11 -425 101 -902 2 -1251 -259 -163 -122 -350 -333 -417 -469 -12 -24 -25
-43 -30 -43 -5 0 5 24 22 53 140 243 389 480 633 603 144 73 291 120 458 149
92 16 361 19 450 5z m1609 -32 c-122 -157 -275 -296 -417 -380 -44 -27 -83
-48 -87 -48 -4 0 37 34 92 77 138 108 265 218 358 312 44 45 81 81 83 81 2 0
-11 -19 -29 -42z m-1809 -1 c0 -8 -10 -19 -22 -25 -18 -8 -19 -11 -5 -11 21
-1 23 -31 1 -31 -8 0 -12 -5 -9 -10 4 -6 15 -8 26 -5 13 4 19 2 19 -9 0 -17
-36 -29 -71 -24 -22 3 -24 9 -27 60 -3 55 -2 57 25 61 54 8 63 7 63 -6z m119
-14 c20 -27 20 -27 21 -5 0 16 6 22 21 22 17 0 20 -4 15 -22 -3 -13 -6 -40 -6
-60 0 -31 -4 -38 -20 -38 -12 0 -25 11 -32 26 l-12 27 -11 -26 c-7 -18 -15
-23 -24 -18 -9 6 -11 23 -6 65 8 63 22 71 54 29z m-285 -30 c-14 -73 -20 -88
-41 -91 -16 -2 -24 8 -41 49 -28 66 -28 69 8 69 22 0 30 -5 31 -17 0 -14 2
-13 9 5 5 12 16 22 25 22 13 0 15 -7 9 -37z m-164 -49 c36 -52 32 -67 -16 -58
-27 5 -34 3 -34 -10 0 -9 -7 -16 -15 -16 -12 0 -15 14 -15 64 0 53 3 65 18 69
24 5 28 2 62 -49z m610 11 c0 -8 -4 -15 -9 -15 -13 0 -22 16 -14 24 11 11 23
6 23 -9z m-775 -36 c4 -11 4 -23 1 -26 -3 -4 1 -14 10 -24 28 -31 -14 -56 -45
-26 -12 10 -13 9 -7 -7 6 -17 -7 -35 -25 -36 -7 0 -49 93 -49 108 0 14 41 31
77 31 24 1 33 -4 38 -20z m1007 -13 c79 -29 192 -86 185 -92 -3 -3 -40 12 -83
34 -44 22 -103 47 -131 56 -50 17 -66 26 -43 26 5 0 38 -11 72 -24z m-317 -37
c99 -16 165 -32 165 -39 0 -4 -37 2 -82 12 -123 28 -364 35 -498 14 -264 -42
-523 -172 -713 -359 -83 -82 -172 -193 -218 -274 -13 -24 -28 -43 -32 -43 -25
0 126 208 220 304 305 310 738 454 1158 385z m-945 -42 c0 -7 -9 -18 -21 -25
-12 -7 -18 -16 -15 -19 3 -3 13 0 21 7 13 10 18 11 28 1 9 -10 8 -14 -5 -22
-10 -6 -18 -14 -18 -20 0 -5 10 -3 23 6 13 8 27 12 30 8 15 -14 5 -30 -31 -51
l-38 -21 -26 42 c-37 59 -37 63 2 90 35 25 50 26 50 4z m869 7 l61 -7 0 -36 0
-36 94 -23 c52 -12 133 -38 181 -58 l87 -37 -59 -59 c-126 -129 -362 -320
-566 -458 l-78 -53 -87 27 c-137 41 -228 58 -353 63 -146 7 -216 -10 -270 -66
-33 -36 -39 -38 -115 -44 -43 -3 -94 -9 -112 -13 l-34 -7 37 74 c21 41 49 89
63 108 l25 34 -26 21 c-15 12 -27 26 -27 30 0 18 115 149 184 210 275 245 642
366 995 330z m247 -75 c74 -23 207 -80 201 -86 -2 -2 -35 10 -73 26 -38 16
-96 37 -129 47 -33 10 -64 21 -69 26 -15 12 -5 10 70 -13z m-1233 -63 c31 -37
34 -46 22 -56 -11 -9 -23 -9 -45 -2 -29 11 -30 11 -15 -12 13 -19 13 -25 2
-34 -10 -8 -21 0 -50 35 -20 25 -37 49 -37 53 0 13 30 20 58 14 22 -5 25 -4
15 7 -7 7 -13 19 -13 26 0 25 26 12 63 -31z m2697 -21 c0 -19 -331 -205 -366
-205 -29 0 -12 31 29 52 67 36 321 157 330 158 4 0 7 -2 7 -5z m-2837 -90 c20
-18 37 -40 37 -47 0 -24 -30 -58 -51 -58 -25 0 -89 47 -89 66 0 25 21 25 55 0
38 -29 45 -31 45 -13 0 7 -13 23 -30 35 -18 14 -27 28 -24 37 9 21 14 19 57
-20z m2447 -110 c0 -13 -36 -35 -56 -35 -14 0 0 29 19 38 31 15 37 14 37 -3z
m-2584 -13 c6 -4 13 -15 17 -24 3 -10 16 -18 27 -18 22 0 25 -7 11 -29 -6 -9
-18 -12 -37 -7 -26 6 -27 5 -11 -7 9 -8 17 -19 17 -25 0 -25 -24 -22 -70 8
l-50 32 22 32 c24 34 38 46 53 46 6 0 15 -4 21 -8z m2504 -21 c0 -10 -25 -21
-48 -21 -15 1 -14 3 2 15 22 17 46 20 46 6z m-90 -31 c0 -5 -10 -10 -22 -9
-22 0 -22 1 -3 9 11 5 21 9 23 9 1 1 2 -3 2 -9z m-834 -53 c-24 -29 -56 -73
-70 -97 -14 -25 -26 -39 -26 -32 0 37 -74 -18 -127 -95 -32 -47 -39 -52 -43
-34 -5 19 -9 18 -81 -24 -69 -41 -80 -45 -115 -37 l-39 8 55 28 c74 38 284
179 395 265 50 38 91 70 93 70 2 1 -17 -23 -42 -52z m1424 29 c-43 -24 -199
-76 -303 -101 -117 -29 -107 -28 -107 -12 0 21 333 125 405 126 l30 0 -25 -13z
m-3080 -75 c0 -6 -4 -13 -10 -16 -5 -3 -10 1 -10 9 0 9 5 16 10 16 6 0 10 -4
10 -9z m2650 -46 c0 -10 -10 -15 -30 -15 -36 0 -38 7 -7 20 32 13 37 12 37 -5z
m-80 -15 c0 -5 -4 -10 -9 -10 -5 0 -16 -3 -25 -6 -9 -3 -16 -1 -16 4 0 9 16
17 43 21 4 0 7 -3 7 -9z m-85 -20 c-3 -5 -13 -10 -21 -10 -8 0 -14 5 -14 10 0
6 9 10 21 10 11 0 17 -4 14 -10z m-88 -16 c-3 -3 -12 -4 -19 -1 -8 3 -5 6 6 6
11 1 17 -2 13 -5z m-2521 -116 c-37 -88 -86 -263 -86 -304 0 -12 -5 -26 -11
-29 -13 -8 -6 34 27 160 22 89 92 270 101 262 2 -3 -12 -43 -31 -89z m200 -12
c-36 -75 -59 -107 -32 -43 26 62 60 127 64 123 2 -3 -13 -38 -32 -80z m475 18
c-46 -8 -106 -26 -134 -40 -48 -24 -50 -24 -32 -4 39 43 87 58 185 58 l65 0
-84 -14z m2407 -5 c29 -12 50 -25 47 -29 -2 -4 -46 -10 -97 -14 -51 -4 -119
-9 -150 -13 -52 -5 -58 -4 -59 13 -1 17 -2 17 -6 2 -6 -23 -63 -25 -63 -3 0 8
10 17 23 19 118 23 225 43 238 45 9 0 39 -9 67 -20z m-340 -41 c-5 -15 -58
-24 -58 -10 0 15 12 22 38 22 14 0 22 -5 20 -12z m-158 -6 c0 -14 -11 -21 -26
-15 -8 3 -11 9 -8 14 7 11 34 12 34 1z m80 -1 c0 -12 -29 -23 -41 -15 -18 10
-9 24 16 24 14 0 25 -4 25 -9z m-233 -7 c-3 -3 -12 -4 -19 -1 -8 3 -5 6 6 6
11 1 17 -2 13 -5z m70 0 c-3 -3 -12 -4 -19 -1 -8 3 -5 6 6 6 11 1 17 -2 13 -5z
m-2177 -48 c-61 -22 -50 -41 42 -71 146 -49 228 -98 228 -137 0 -36 -31 -78
-88 -119 -31 -23 -79 -62 -106 -88 -26 -25 -44 -37 -38 -25 6 11 47 56 92 100
98 95 104 105 88 138 -21 48 -219 124 -348 134 l-85 7 55 27 c30 15 80 32 110
37 77 12 91 12 50 -3z m236 3 c10 -17 -13 -36 -27 -22 -12 12 -4 33 11 33 5 0
12 -5 16 -11z m-161 -39 c-3 -5 -12 -10 -18 -10 -7 0 -6 4 3 10 19 12 23 12
15 0z m250 -40 c-37 -38 -65 -51 -65 -30 0 9 87 69 100 70 2 0 -14 -18 -35
-40z m-55 25 c0 -11 -40 -24 -57 -18 -14 6 -11 9 17 14 19 4 36 7 38 8 1 0 2
-1 2 -4z m-485 -126 c-7 -33 -16 -63 -19 -66 -9 -9 -7 17 5 62 14 54 18 65 22
65 3 0 -1 -27 -8 -61z m185 41 c111 -31 213 -71 203 -81 -14 -14 -103 -27
-236 -35 -105 -6 -127 -5 -127 7 1 15 18 96 25 117 6 17 50 15 135 -8z m2240
-21 c0 -5 -7 -9 -15 -9 -15 0 -20 12 -9 23 8 8 24 -1 24 -14z m70 -4 c0 -8 -9
-15 -20 -15 -20 0 -26 11 -13 23 12 13 33 7 33 -8z m70 1 c0 -8 -5 -18 -10
-21 -17 -11 -40 3 -34 20 8 19 44 20 44 1z m70 5 c0 -25 -13 -38 -34 -34 -32
7 -23 43 10 43 13 0 24 -4 24 -9z m255 -7 c13 -8 26 -22 29 -30 5 -12 -14 -14
-136 -9 -78 3 -144 7 -146 9 -2 3 1 14 8 25 10 19 20 21 116 21 78 0 111 -4
129 -16z m-3552 -120 l112 -24 -74 5 c-70 5 -215 46 -236 66 -5 5 12 2 38 -7
26 -9 98 -27 160 -40z m562 -44 c61 -5 161 -10 223 -11 81 -1 112 -4 109 -12
-2 -7 -36 -14 -85 -17 -61 -4 -86 -10 -103 -25 -22 -20 -22 -20 -15 1 5 18 2
22 -25 28 -48 9 -114 7 -146 -5 -23 -8 -26 -8 -15 2 18 19 15 29 -10 30 -13 0
-41 7 -63 14 -31 11 -34 13 -10 10 17 -3 80 -9 140 -15z m745 -66 c47 -13 119
-28 160 -32 71 -8 73 -9 41 -18 l-35 -10 36 -27 c34 -27 88 -94 88 -111 0 -5
-9 3 -20 17 -38 48 -120 99 -228 141 -95 38 -199 87 -147 71 11 -4 58 -17 105
-31z m1700 12 c0 -3 -4 -8 -10 -11 -5 -3 -10 -1 -10 4 0 6 5 11 10 11 6 0 10
-2 10 -4z m54 -21 c-4 -8 -10 -12 -15 -9 -14 8 -10 24 6 24 9 0 12 -6 9 -15z
m60 -10 c-4 -8 -12 -15 -20 -15 -8 0 -14 7 -14 15 0 8 9 15 20 15 13 0 18 -5
14 -15z m50 9 c20 -8 9 -34 -15 -34 -21 0 -22 1 -13 24 7 18 7 18 28 10z m176
-26 c68 -47 48 -52 -99 -27 -63 10 -64 11 -55 33 10 26 112 22 154 -6z m-3315
-92 l180 1 -80 -14 c-107 -19 -309 -22 -357 -5 -63 22 -57 34 14 25 34 -4 144
-7 243 -7z m212 8 c-3 -3 -12 -4 -19 -1 -8 3 -5 6 6 6 11 1 17 -2 13 -5z
m3086 -121 c-30 -186 -72 -322 -144 -466 -51 -100 -148 -252 -156 -243 -3 2
18 37 45 78 67 98 113 184 157 296 36 92 85 283 85 335 0 15 4 27 9 27 4 0 6
-12 4 -27z m-3063 -11 c-8 -3 -23 -9 -32 -14 -12 -6 -18 -5 -18 2 0 13 41 30
55 22 5 -3 2 -8 -5 -10z m2662 -4 c-7 -7 -12 -8 -12 -2 0 6 3 14 7 17 3 4 9 5
12 2 2 -3 -1 -11 -7 -17z m61 -3 c-3 -8 -12 -15 -19 -15 -12 0 -12 4 -4 20 12
23 32 18 23 -5z m53 4 c7 -12 -22 -46 -32 -37 -8 9 5 48 16 48 5 0 12 -5 16
-11z m120 -14 c35 -5 43 -11 47 -33 3 -15 3 -29 1 -31 -5 -5 -154 26 -161 33
-3 2 1 14 7 26 9 16 18 20 38 16 15 -3 46 -8 68 -11z m-2966 -5 c0 -12 -33
-30 -54 -30 -23 0 -19 15 7 28 28 14 47 15 47 2z m315 -20 c-3 -5 -14 -10 -23
-10 -15 0 -15 2 -2 10 20 13 33 13 25 0z m-388 -16 c5 -16 -172 -73 -261 -84
-44 -5 -81 -8 -83 -6 -2 2 47 15 109 30 62 15 136 38 163 51 52 24 66 26 72 9z
m319 -29 c-22 -17 -36 -19 -36 -7 0 14 12 22 34 22 21 -1 21 -1 2 -15z m-59
-32 c5 -14 -33 -27 -48 -17 -9 5 -6 11 7 21 20 14 36 13 41 -4z m-63 -32 c3
-5 -6 -16 -20 -26 -20 -13 -28 -14 -40 -4 -12 10 -12 13 3 25 21 15 49 18 57
5z m-71 -52 c-11 -11 -123 -72 -218 -120 l-80 -40 36 33 c20 18 83 61 140 95
78 47 107 59 117 51 7 -6 9 -15 5 -19z m2617 10 c-7 -11 -14 -19 -16 -16 -7 7
7 37 17 37 6 0 5 -9 -1 -21z m-944 -25 c140 -76 188 -96 221 -92 22 3 33 0 33
-9 0 -20 -35 -33 -85 -33 -41 0 -46 -2 -40 -17 22 -56 18 -80 -18 -119 -38
-42 -39 -41 -36 29 1 41 0 52 -13 99 -10 40 -18 50 -48 62 -30 12 -40 12 -70
0 -38 -16 -52 -32 -45 -51 2 -7 0 -13 -6 -13 -5 0 -12 7 -15 15 -9 24 -44 -1
-44 -31 0 -14 -4 -22 -10 -19 -5 3 -10 30 -10 60 0 46 4 56 26 74 15 12 32 21
39 21 7 0 20 11 29 25 21 31 31 31 92 -1z m992 14 c-3 -7 -12 -14 -21 -16 -12
-2 -15 1 -11 12 7 19 38 22 32 4z m142 -85 c-17 -43 -41 -94 -52 -113 -42 -71
-123 -190 -130 -190 -4 0 20 41 53 90 57 86 110 189 140 273 7 21 15 34 17 28
2 -5 -11 -45 -28 -88z m-2580 72 c-7 -8 -18 -15 -24 -15 -6 0 -2 7 8 15 25 19
32 19 16 0z m2520 -13 c0 -16 -3 -31 -6 -35 -5 -5 -58 16 -73 29 -11 10 25 34
50 34 25 0 29 -4 29 -28z m-2585 -42 c-10 -11 -22 -17 -28 -13 -5 3 1 14 14
24 30 22 38 16 14 -11z m255 5 c0 -8 -7 -15 -16 -15 -14 0 -14 3 -4 15 7 8 14
15 16 15 2 0 4 -7 4 -15z m-294 -33 c-3 -5 -59 -55 -126 -111 -104 -88 -120
-99 -120 -78 0 13 6 30 13 38 26 32 159 120 173 115 9 -3 12 -1 9 5 -4 6 1 17
11 24 21 16 48 20 40 7z m254 -16 c0 -18 -17 -29 -30 -21 -8 5 -7 11 1 21 15
18 29 18 29 0z m2339 -48 c-30 -61 -122 -198 -133 -198 -5 0 -25 12 -45 27
-20 14 -37 27 -39 29 -2 1 14 29 35 62 32 51 47 65 93 85 110 49 116 49 89 -5z
m-1364 -8 c44 -22 84 -40 89 -40 5 0 17 -7 26 -15 9 -8 34 -21 56 -29 37 -13
38 -14 14 -20 -14 -3 -38 -7 -55 -10 -20 -2 -29 -8 -26 -17 3 -8 6 -32 8 -54
3 -34 -1 -45 -27 -72 -17 -18 -32 -33 -33 -33 -1 0 -1 21 0 47 0 27 -6 74 -15
105 -15 50 -22 59 -52 72 -30 12 -39 12 -70 -3 -41 -19 -50 -29 -43 -48 3 -7
1 -13 -5 -13 -6 0 -12 6 -15 13 -7 18 -41 -5 -45 -32 -6 -38 -22 -12 -22 35 0
57 11 78 49 94 17 6 37 23 46 36 8 13 21 24 28 24 7 0 48 -18 92 -40z m-1021
12 c8 -14 -19 -41 -34 -32 -11 7 -11 11 -1 24 15 17 27 20 35 8z m-41 -48 c8
-9 -15 -44 -30 -44 -19 0 -26 20 -13 35 13 16 32 19 43 9z m251 -19 c-6 -16
-24 -21 -24 -7 0 11 11 22 21 22 5 0 6 -7 3 -15z m-296 -28 c9 -10 -1 -28 -41
-77 l-52 -63 -9 32 c-8 30 -6 35 34 77 48 48 52 50 68 31z m272 -16 c0 -5 -6
-14 -14 -20 -16 -13 -32 2 -21 19 8 12 35 13 35 1z m-30 -51 c0 -4 -7 -13 -15
-20 -22 -18 -44 2 -26 24 12 14 41 12 41 -4z m244 -1 c-3 -5 -10 -7 -15 -3 -5
3 -7 10 -3 15 3 5 10 7 15 3 5 -3 7 -10 3 -15z m-279 -39 c5 -7 -30 -80 -52
-109 -6 -8 -33 22 -33 37 0 8 11 30 26 49 25 33 47 42 59 23z m255 -5 c0 -8
-7 -15 -15 -15 -16 0 -20 12 -8 23 11 12 23 8 23 -8z m-26 -31 c20 -8 9 -34
-15 -34 -18 0 -26 20 -12 33 8 8 8 8 27 1z m-25 -43 c11 -7 11 -16 -4 -55 -22
-58 -30 -63 -50 -32 -15 23 -15 27 7 60 25 39 27 40 47 27z m281 -7 c0 -8 -4
-12 -10 -9 -5 3 -10 10 -10 16 0 5 5 9 10 9 6 0 10 -7 10 -16z m1646 -32 c-4
-3 -14 2 -24 12 -16 18 -16 18 6 6 13 -6 21 -14 18 -18z m-1658 -10 c2 -7 -5
-12 -17 -12 -14 0 -19 5 -14 15 6 17 25 15 31 -3z m1737 -25 c13 -11 15 -16 6
-22 -8 -4 -21 1 -34 14 -17 16 -18 21 -6 21 8 0 23 -6 34 -13z m-1745 -18 c0
-6 -4 -7 -10 -4 -5 3 -10 11 -10 16 0 6 5 7 10 4 6 -3 10 -11 10 -16z m576 4
c-2 -10 -19 -72 -37 -138 -18 -66 -35 -123 -38 -127 -8 -9 -137 23 -208 51
-63 25 -197 92 -238 120 -26 18 -27 21 -10 26 11 4 44 15 72 27 l53 20 25 -30
c23 -28 28 -29 65 -21 47 11 127 47 136 61 3 5 17 -1 30 -13 l25 -23 62 31
c75 38 69 37 63 16z m-725 -224 c146 -111 318 -196 489 -240 86 -23 134 -45
70 -33 -67 13 -239 73 -323 113 -132 63 -262 155 -379 270 -60 57 -108 109
-108 114 0 6 40 -30 88 -79 48 -49 122 -114 163 -145z m1983 191 c10 -10 -1
-30 -17 -30 -20 1 -49 28 -42 40 7 11 42 5 59 -10z m-1852 -55 c40 -31 123
-80 183 -110 101 -49 264 -105 307 -105 10 0 18 -5 18 -11 0 -6 -8 -8 -17 -5
-10 3 -47 12 -83 21 -136 35 -298 114 -428 209 -56 41 -71 56 -58 56 3 0 38
-25 78 -55z m1913 23 c28 -13 32 -30 10 -48 -13 -10 -19 -9 -38 6 -12 10 -23
19 -25 20 -6 3 11 34 19 34 4 0 20 -5 34 -12z m-324 -25 c13 -17 13 -17 -6 -3
-11 8 -22 16 -24 17 -2 2 0 3 6 3 6 0 17 -8 24 -17z m405 -12 c24 -15 33 -28
38 -61 4 -24 5 -45 2 -47 -6 -6 -106 69 -106 79 0 11 23 48 30 48 3 0 19 -9
36 -19z m-325 -44 c-5 -5 -17 -4 -30 3 -30 15 -16 32 15 18 15 -7 21 -15 15
-21z m79 -43 c0 -22 -18 -25 -45 -8 -19 13 -23 20 -14 30 13 16 59 -1 59 -22z
m70 -33 c12 -8 12 -13 -4 -30 -17 -19 -20 -19 -42 -4 -26 17 -30 33 -12 51 11
11 20 8 58 -17z m130 -123 c0 -27 -3 -48 -6 -48 -4 0 -27 17 -52 38 -24 20
-54 44 -65 53 -20 16 -20 18 -4 42 l17 26 55 -32 c54 -32 55 -33 55 -79z
m-539 85 c13 -16 12 -17 -3 -4 -17 13 -22 21 -14 21 2 0 10 -8 17 -17z m60
-59 c12 -14 11 -16 -5 -13 -11 2 -21 10 -24 17 -5 17 13 15 29 -4z m-234 -56
c-3 -8 -6 -5 -6 6 -1 11 2 17 5 13 3 -3 4 -12 1 -19z m283 7 c10 -13 11 -18 1
-28 -10 -9 -15 -8 -26 7 -23 31 1 50 25 21z m50 -57 c19 -21 20 -24 4 -35 -14
-10 -20 -8 -34 10 -13 16 -15 26 -8 35 14 16 14 16 38 -10z m-300 -13 c0 -8
-4 -15 -10 -15 -5 0 -10 7 -10 15 0 8 5 15 10 15 6 0 10 -7 10 -15z m409 -99
l74 -75 -12 -40 c-6 -23 -15 -41 -19 -41 -4 0 -30 33 -58 73 -38 53 -49 75
-42 85 8 9 7 11 -4 7 -8 -3 -22 3 -33 14 -14 17 -15 23 -5 36 7 8 15 15 19 15
4 0 40 -34 80 -74z m-382 39 c8 -22 -6 -33 -17 -15 -13 20 -12 30 0 30 6 0 13
-7 17 -15z m-250 -17 c-3 -8 -6 -5 -6 6 -1 11 2 17 5 13 3 -3 4 -12 1 -19z
m278 -49 c8 -23 1 -34 -14 -24 -13 8 -15 45 -2 45 5 0 13 -9 16 -21z m-255
-10 c0 -11 -4 -17 -10 -14 -5 3 -10 13 -10 21 0 8 5 14 10 14 6 0 10 -9 10
-21z m-395 -9 c3 -5 1 -10 -4 -10 -6 0 -11 5 -11 10 0 6 2 10 4 10 3 0 8 -4
11 -10z m175 -6 c0 -8 -5 -12 -10 -9 -6 4 -8 11 -5 16 9 14 15 11 15 -7z m238
-42 c2 -12 -1 -22 -7 -22 -6 0 -11 4 -11 9 0 5 -3 17 -7 27 -4 12 -2 15 8 12
8 -2 15 -14 17 -26z m272 -24 c0 -5 -6 -8 -14 -8 -15 0 -29 38 -19 53 5 9 32
-28 33 -45z m-693 20 c-3 -8 -6 -5 -6 6 -1 11 2 17 5 13 3 -3 4 -12 1 -19z
m180 -10 c-3 -8 -6 -5 -6 6 -1 11 2 17 5 13 3 -3 4 -12 1 -19z m258 -39 c8
-23 1 -34 -14 -24 -13 8 -15 45 -2 45 5 0 13 -9 16 -21z m-245 -4 c0 -8 -4
-15 -10 -15 -5 0 -10 7 -10 15 0 8 5 15 10 15 6 0 10 -7 10 -15z m527 -47 c46
-140 43 -145 -11 -20 -24 57 -31 82 -22 82 7 0 22 -28 33 -62z m-527 -23 c0
-19 -2 -35 -4 -35 -2 0 -6 16 -8 35 -2 19 0 35 4 35 4 0 8 -16 8 -35z m260 28
c0 -5 6 -41 14 -82 17 -90 5 -81 -22 17 -17 59 -18 72 -6 72 8 0 14 -3 14 -7z"/>
<path d="M2580 4360 c0 -5 5 -10 10 -10 6 0 10 5 10 10 0 6 -4 10 -10 10 -5 0
-10 -4 -10 -10z"/>
<path d="M2763 4181 c-10 -9 -28 -34 -40 -56 -11 -22 -30 -57 -42 -77 -11 -21
-18 -38 -15 -38 4 0 1 -6 -6 -14 -9 -12 -5 -19 27 -39 21 -13 50 -27 66 -31
15 -3 27 -11 27 -16 0 -6 11 -10 25 -10 14 0 28 -7 32 -16 5 -13 -22 -91 -37
-104 -3 -3 -11 -18 -18 -33 -10 -23 -10 -31 2 -43 8 -8 19 -14 25 -14 6 0 11
-3 11 -8 0 -4 15 -13 33 -20 17 -7 40 -18 50 -23 35 -19 17 11 -23 37 -22 15
-40 31 -40 35 0 5 -7 9 -15 9 -19 0 -20 -3 12 66 16 34 28 52 31 44 3 -8 13
-34 23 -58 10 -23 19 -46 20 -50 0 -4 4 -11 9 -17 4 -5 11 -26 15 -46 6 -34
15 -40 45 -29 3 1 8 2 13 1 10 -2 9 17 -2 21 -17 6 -100 218 -86 218 7 0 15
-3 17 -7 2 -5 21 -17 42 -28 54 -27 64 -46 47 -87 -21 -53 -24 -68 -14 -68 11
0 63 116 63 141 0 8 -16 21 -35 29 -19 8 -35 17 -35 22 0 4 -7 8 -15 8 -8 0
-15 5 -15 10 0 6 -6 10 -12 10 -34 1 -40 16 -23 56 9 21 19 50 21 63 3 13 9
32 15 43 16 29 -1 46 -94 92 -81 41 -88 43 -104 27z m13 -50 c-3 -4 10 -48 30
-96 35 -87 35 -125 1 -91 -9 9 -21 16 -27 16 -6 0 -26 7 -45 14 l-35 15 27 63
c26 61 41 88 50 88 2 0 2 -4 -1 -9z m98 -22 c28 -17 52 -32 53 -33 5 -4 -40
-121 -50 -131 -7 -7 -8 -6 -3 2 3 6 2 14 -4 18 -6 4 -8 11 -5 16 4 5 1 9 -5 9
-7 0 -10 7 -6 15 3 8 1 15 -3 15 -5 0 -12 7 -15 16 -3 8 -2 12 4 9 6 -3 7 1 4
9 -3 9 -10 16 -16 16 -5 0 -6 5 -3 10 3 6 1 10 -5 10 -7 0 -10 7 -6 15 3 8 1
15 -5 15 -6 0 -7 5 -4 10 9 14 12 13 69 -21z"/>
<path d="M1955 3881 c-3 -5 -1 -12 5 -16 5 -3 10 1 10 9 0 18 -6 21 -15 7z"/>
</g>
</svg>
