<?xml version="1.0" standalone="no"?>
<!DOCTYPE svg PUBLIC "-//W3C//DTD SVG 20010904//EN"
 "http://www.w3.org/TR/2001/REC-SVG-20010904/DTD/svg10.dtd">
<svg version="1.0" xmlns="http://www.w3.org/2000/svg"
 width="254.000000pt" height="227.000000pt" viewBox="0 0 254.000000 227.000000"
 preserveAspectRatio="xMidYMid meet">

<g transform="translate(0.000000,227.000000) scale(0.100000,-0.100000)"
fill="#000000" stroke="none">
<path d="M1433 2005 c-10 -10 -9 -15 4 -19 22 -9 37 8 21 21 -9 8 -16 7 -25
-2z"/>
<path d="M1712 1817 c35 -30 48 -58 48 -107 0 -51 -22 -95 -58 -114 l-27 -15
30 -1 c64 0 119 59 119 129 0 72 -52 131 -116 131 -23 0 -23 0 4 -23z"/>
<path d="M935 1550 c-3 -5 -1 -10 4 -10 6 0 11 5 11 10 0 6 -2 10 -4 10 -3 0
-8 -4 -11 -10z"/>
<path d="M1238 1523 c-36 -4 -55 -23 -23 -23 12 0 35 -28 35 -43 0 -3 -10 -7
-22 -10 -39 -10 -214 -190 -202 -208 6 -10 -64 -149 -75 -149 -4 0 -16 -7 -27
-15 -18 -14 -18 -15 9 -11 29 5 34 -2 15 -23 -11 -11 -10 -12 0 -6 11 6 11 3
0 -14 -10 -16 -10 -23 0 -33 9 -9 28 3 84 56 116 107 104 101 138 67 34 -34
41 -29 8 6 -17 19 -19 26 -9 36 10 9 18 5 41 -23 33 -39 36 -50 17 -50 -7 0
-35 -21 -62 -46 -58 -53 -79 -62 -195 -74 -72 -8 -96 -6 -162 11 l-77 19 -86
-28 c-83 -27 -85 -29 -60 -40 37 -17 62 -15 125 9 74 28 120 21 220 -36 43
-25 87 -45 97 -45 10 -1 36 -7 58 -15 l40 -14 -28 23 -29 23 54 9 53 9 -84 3
c-65 2 -90 7 -109 22 -23 18 -23 20 -6 27 27 11 412 10 512 -1 46 -5 100 -17
120 -28 20 -10 42 -18 49 -18 7 0 31 -16 53 -36 22 -20 43 -35 46 -32 8 9 -50
62 -102 92 -46 26 -47 29 -29 42 11 8 47 15 89 16 64 2 65 2 18 5 l-52 4 31
47 c30 47 30 47 2 16 -15 -17 -50 -43 -78 -58 -56 -31 -80 -33 -282 -16 -65 5
-125 10 -133 10 -8 0 -21 4 -28 8 -18 12 2 62 24 62 16 0 73 36 86 54 13 19
-2 19 -22 1 -21 -19 -21 -19 -45 10 -13 17 -24 35 -25 41 0 5 23 20 50 32 28
12 50 26 50 32 0 5 8 10 19 10 24 0 66 109 55 143 -4 12 -7 38 -6 57 1 19 -4
42 -10 50 -19 22 -65 50 -80 48 -7 -1 -30 -3 -50 -5z"/>
<path d="M1631 1346 c-9 -10 -8 -16 3 -25 10 -9 16 -8 25 3 9 10 8 16 -3 25
-10 9 -16 8 -25 -3z"/>
<path d="M1810 995 c-14 -8 -20 -14 -15 -14 6 0 21 6 35 14 14 8 21 14 15 14
-5 0 -21 -6 -35 -14z"/>
<path d="M797 693 c-4 -3 -7 -28 -7 -55 0 -36 -4 -48 -15 -48 -28 0 -115 55
-115 72 0 24 -19 33 -36 17 -9 -10 -14 -49 -16 -134 -3 -114 -2 -120 17 -120
17 0 20 8 23 53 2 28 7 52 13 52 20 0 107 -50 112 -65 4 -8 18 -15 32 -15 23
0 25 4 26 43 0 23 2 51 4 61 4 19 8 109 6 134 -1 13 -33 17 -44 5z m-87 -123
c22 -11 40 -23 40 -25 0 -5 -79 32 -89 41 -11 10 14 2 49 -16z"/>
<path d="M2206 678 c-3 -13 -6 -38 -6 -55 0 -18 -5 -33 -10 -33 -22 0 -110 51
-110 64 0 7 -6 19 -14 25 -25 21 -43 -11 -45 -80 -1 -60 -9 -87 -18 -62 -3 9
-18 6 -53 -12 -55 -28 -60 -29 -60 -16 0 5 24 23 54 40 62 34 73 48 57 64 -9
9 -22 6 -52 -11 -23 -13 -43 -22 -45 -19 -10 10 10 36 37 47 34 14 55 45 38
55 -5 4 -35 -4 -64 -17 -52 -22 -55 -25 -65 -73 -6 -27 -11 -81 -13 -120 -2
-60 0 -70 16 -73 12 -2 20 3 24 17 3 13 22 26 52 37 25 9 55 28 67 41 l20 23
-4 -35 c-4 -36 10 -65 33 -65 8 0 15 21 20 55 3 30 8 55 10 55 19 0 97 -44
107 -59 7 -12 23 -21 35 -21 19 0 22 7 27 53 3 28 7 84 8 122 3 65 1 70 -18
73 -15 2 -23 -4 -28 -20z m-60 -120 c19 -11 34 -22 34 -24 0 -5 -101 45 -110
53 -11 11 44 -10 76 -29z"/>
<path d="M224 655 c-7 -19 -14 -42 -14 -52 0 -10 -7 -51 -17 -91 -13 -57 -14
-75 -5 -84 18 -18 46 3 50 38 5 46 18 48 47 10 18 -24 36 -36 52 -36 38 0 40
27 4 64 l-31 32 26 20 c33 24 28 47 -23 98 -46 46 -70 46 -89 1z m60 -54 c3
-5 -1 -14 -9 -21 -13 -10 -15 -9 -15 9 0 21 14 28 24 12z"/>
<path d="M396 678 c-3 -7 -7 -47 -9 -90 l-5 -76 77 -46 c43 -25 83 -46 89 -46
23 0 34 44 35 142 1 101 -7 123 -40 111 -9 -4 -13 -29 -13 -94 0 -99 -4 -104
-57 -63 -34 26 -35 28 -30 84 2 32 0 65 -5 74 -11 19 -37 21 -42 4z"/>
<path d="M938 667 c-52 -24 -68 -54 -68 -127 0 -19 -4 -51 -9 -71 -14 -59 28
-99 48 -46 6 14 26 28 60 40 52 18 75 44 65 71 -5 13 -13 12 -55 -9 -54 -28
-59 -29 -59 -16 0 5 24 23 54 40 62 34 73 48 57 64 -9 9 -22 6 -52 -11 -23
-13 -43 -22 -45 -19 -10 10 9 34 41 51 21 11 35 27 35 38 0 23 -13 22 -72 -5z"/>
<path d="M1256 668 c-15 -25 -38 -139 -40 -203 -1 -33 2 -40 19 -40 14 0 22
11 30 45 l11 45 34 -37 c35 -40 73 -50 84 -23 3 10 -7 27 -27 45 l-32 29 28
26 c26 25 26 27 12 54 -17 33 -70 81 -91 81 -7 0 -20 -10 -28 -22z m58 -79
c-10 -16 -24 -9 -24 12 0 18 2 19 15 9 8 -7 12 -16 9 -21z"/>
<path d="M1492 643 c-39 -27 -72 -55 -74 -63 -2 -8 -2 -48 0 -88 3 -68 5 -73
25 -70 16 2 23 11 25 31 2 20 14 35 35 47 40 24 52 21 49 -10 -4 -33 20 -65
42 -57 13 5 16 23 16 115 0 93 -3 111 -18 125 -10 10 -21 17 -24 17 -3 0 -38
-21 -76 -47z m58 -43 c0 -18 -51 -60 -72 -60 -21 0 -4 32 29 55 45 30 43 30
43 5z"/>
<path d="M1636 665 c-13 -13 -13 -20 -1 -48 7 -17 23 -69 35 -114 20 -73 24
-81 40 -73 10 5 21 21 24 36 4 14 24 62 46 106 22 45 37 85 34 90 -3 4 -14 8
-24 8 -13 0 -28 -18 -48 -61 -32 -65 -36 -66 -47 -4 -13 72 -30 89 -59 60z"/>
</g>
</svg>
