<?xml version="1.0" standalone="no"?>
<!DOCTYPE svg PUBLIC "-//W3C//DTD SVG 20010904//EN"
 "http://www.w3.org/TR/2001/REC-SVG-20010904/DTD/svg10.dtd">
<svg version="1.0" xmlns="http://www.w3.org/2000/svg"
 width="612.000000pt" height="612.000000pt" viewBox="0 0 612.000000 612.000000"
 preserveAspectRatio="xMidYMid meet">

<g transform="translate(0.000000,612.000000) scale(0.100000,-0.100000)"
fill="#000000" stroke="none">
<path d="M4334 5209 c-4 -7 -9 -44 -11 -83 -7 -152 -89 -378 -215 -598 -105
-183 -98 -178 -98 -70 0 50 -3 92 -7 92 -5 0 -19 -26 -32 -56 -19 -43 -87
-161 -106 -182 -1 -2 -38 15 -81 36 -44 22 -107 50 -141 62 l-61 22 9 31 c5
18 9 35 9 39 0 12 -215 57 -330 69 -321 32 -667 -49 -955 -222 -211 -127 -413
-334 -543 -555 -43 -72 -52 -104 -29 -104 7 0 21 -6 30 -12 16 -12 14 -19 -17
-93 -40 -92 -82 -233 -92 -305 -5 -39 -11 -50 -24 -50 -27 0 -179 30 -234 46
-79 23 -84 18 -36 -31 l44 -44 -195 50 c-353 91 -413 118 -470 208 -11 18 -21
23 -34 18 -15 -6 -17 -16 -13 -70 7 -84 37 -147 96 -205 63 -62 148 -106 258
-136 l89 -23 -69 -8 c-132 -15 -253 9 -323 65 -35 27 -46 16 -38 -39 9 -69 51
-146 99 -185 52 -43 137 -83 194 -92 23 -3 44 -10 47 -14 7 -12 -130 -23 -219
-18 -51 2 -77 0 -80 -8 -7 -17 57 -106 97 -137 24 -18 48 -27 74 -27 21 0 49
-3 62 -7 l23 -6 -28 -12 -29 -12 54 -17 c30 -9 75 -16 100 -16 l46 0 -53 -46
c-28 -25 -52 -51 -52 -59 0 -15 90 -56 140 -62 22 -3 55 3 89 16 29 12 56 20
58 17 3 -3 0 -27 -6 -55 -12 -56 -7 -80 18 -82 47 -5 90 6 120 28 32 25 33 25
26 4 -8 -25 -7 -25 38 -6 51 21 57 19 57 -19 0 -18 5 -48 11 -66 13 -36 14
-36 159 -15 45 7 45 7 77 -39 31 -44 35 -46 80 -46 46 0 50 -2 93 -56 100
-123 315 -286 482 -364 94 -44 239 -94 306 -105 32 -5 42 -11 42 -26 0 -28 29
-109 57 -157 19 -34 27 -41 38 -32 10 8 30 -7 89 -67 l76 -77 27 26 26 27 50
-45 c75 -68 76 -68 146 -33 l61 31 48 -44 c92 -81 122 -85 192 -21 l40 36 43
-17 c23 -8 64 -19 90 -22 42 -6 51 -4 73 17 28 26 67 97 78 143 6 23 11 27 29
21 12 -4 45 -9 72 -12 50 -5 50 -5 78 39 31 48 55 120 64 191 5 37 9 46 22 43
39 -11 97 -16 107 -9 24 17 37 60 42 140 l5 83 33 0 c41 0 49 22 41 115 -6 85
-30 123 -96 157 -30 15 -55 29 -57 30 -1 2 22 39 52 83 67 98 145 254 179 358
22 71 55 220 70 319 5 31 13 42 50 64 25 14 45 30 45 36 0 16 -21 52 -48 80
-24 26 -24 28 -6 34 60 20 185 87 219 117 l40 35 -19 35 c-10 19 -36 52 -57
73 l-39 38 108 52 c130 64 146 76 137 103 -7 25 -73 72 -147 106 -43 20 -49
25 -32 31 10 4 57 25 103 46 83 37 84 38 66 58 -18 20 -17 20 23 20 35 0 51 8
116 63 41 34 75 67 75 74 1 19 -83 26 -222 19 l-130 -6 59 45 c86 67 190 171
241 242 78 109 118 242 81 266 -14 10 -30 -2 -100 -69 -80 -78 -175 -147 -266
-193 -24 -12 -46 -20 -49 -18 -2 3 11 22 30 44 73 82 227 309 227 336 0 4 -10
5 -22 1 l-23 -7 20 24 c11 13 32 38 47 55 59 64 79 312 26 322 -12 2 -27 -17
-54 -70 -77 -153 -218 -338 -345 -452 -57 -51 -164 -136 -172 -136 -3 0 24 43
59 96 173 259 231 508 167 719 -13 40 -25 61 -36 63 -27 5 -47 -17 -47 -52 0
-115 -106 -366 -222 -528 -68 -93 -229 -281 -235 -274 -3 2 5 22 16 45 26 50
26 51 1 51 -18 0 -16 4 14 30 41 36 87 140 116 262 27 113 27 263 0 350 -30
96 -76 158 -96 127z m377 -450 c-51 -149 -136 -297 -247 -430 -58 -70 -163
-169 -179 -169 -4 0 20 30 53 68 120 137 249 326 337 495 27 52 51 94 53 93 1
-2 -6 -27 -17 -57z m-416 -81 c-24 -78 -75 -207 -103 -263 -36 -72 -138 -235
-147 -235 -3 0 47 104 111 232 64 127 120 242 125 255 9 24 22 33 14 11z
m-955 -148 c105 -17 210 -41 210 -50 0 -4 -34 1 -75 11 -425 101 -902 2 -1251
-259 -163 -122 -350 -333 -417 -469 -12 -24 -25 -43 -30 -43 -5 0 5 24 22 53
140 243 389 480 633 603 144 73 291 120 458 149 92 16 361 19 450 5z m1609
-32 c-122 -157 -275 -296 -417 -380 -44 -27 -83 -48 -87 -48 -4 0 37 34 92 77
138 108 265 218 358 312 44 45 81 81 83 81 2 0 -11 -19 -29 -42z m-1835 -16
c-15 -9 -15 -65 -1 -74 16 -10 1 -22 -18 -15 -10 5 -15 20 -15 52 0 40 2 45
23 45 13 0 17 -3 11 -8z m157 -20 c0 -14 2 -13 9 3 7 16 9 13 9 -15 0 -39 -17
-91 -18 -56 -1 16 -3 17 -18 5 -15 -13 -16 -11 -10 20 4 18 7 42 7 53 0 23 20
14 21 -10z m-336 -14 l8 -33 7 35 c7 32 7 31 9 -18 1 -66 -16 -66 -35 -1 -16
53 -16 49 -5 49 5 0 12 -15 16 -32z m-131 -51 c15 -37 15 -38 -4 -32 -13 4
-20 2 -21 -7 -1 -7 -5 7 -9 32 -12 75 5 78 34 7z m616 18 c0 -8 -4 -15 -9 -15
-13 0 -22 16 -14 24 11 11 23 6 23 -9z m-782 -46 c2 -13 11 -32 19 -41 18 -20
4 -25 -15 -6 -9 9 -12 8 -12 -7 0 -17 -2 -16 -13 5 -21 40 -26 69 -13 74 20 8
31 0 34 -25z m1014 -3 c79 -29 192 -86 185 -92 -3 -3 -40 12 -83 34 -44 22
-103 47 -131 56 -50 17 -66 26 -43 26 5 0 38 -11 72 -24z m-317 -37 c99 -16
165 -32 165 -39 0 -4 -37 2 -82 12 -123 28 -364 35 -498 14 -264 -42 -523
-172 -713 -359 -83 -82 -172 -193 -218 -274 -13 -24 -28 -43 -32 -43 -25 0
126 208 220 304 305 310 738 454 1158 385z m-832 -56 c21 -24 11 -33 -12 -10
-10 10 -11 9 -6 -5 13 -33 -5 -18 -25 22 -23 46 -26 63 -5 36 15 -19 15 -19
16 5 l2 24 4 -25 c3 -14 14 -35 26 -47z m756 21 l61 -7 0 -36 0 -36 94 -23
c52 -12 133 -38 181 -58 l87 -37 -59 -59 c-126 -129 -362 -320 -566 -458 l-78
-53 -87 27 c-137 41 -228 58 -353 63 -146 7 -216 -10 -270 -66 -33 -36 -39
-38 -115 -44 -43 -3 -94 -9 -112 -13 l-34 -7 37 74 c21 41 49 89 63 108 l25
34 -26 21 c-15 12 -27 26 -27 30 0 18 115 149 184 210 275 245 642 366 995
330z m-919 -53 c0 -5 -5 -11 -12 -13 -7 -3 -5 -13 7 -32 17 -25 20 -26 25 -10
5 12 9 14 14 6 9 -15 -1 -32 -19 -32 -17 0 -59 66 -50 80 8 12 35 13 35 1z
m1166 -22 c74 -23 207 -80 201 -86 -2 -2 -35 10 -73 26 -38 16 -96 37 -129 47
-33 10 -64 21 -69 26 -15 12 -5 10 70 -13z m-1292 -110 c-3 -5 1 -6 9 -3 8 3
20 -2 27 -11 12 -15 11 -16 -6 -13 -11 2 -18 -2 -16 -9 1 -7 -2 -13 -8 -13
-12 0 -51 75 -43 84 9 8 44 -25 37 -35z m2756 26 c0 -19 -331 -205 -366 -205
-29 0 -12 31 29 52 67 36 321 157 330 158 4 0 7 -2 7 -5z m-2886 -134 c10 -11
28 -22 40 -24 19 -3 20 -4 3 -12 -14 -6 -27 0 -50 24 -17 17 -27 31 -21 31 6
0 19 -9 28 -19z m2496 -66 c0 -13 -36 -35 -56 -35 -14 0 0 29 19 38 31 15 37
14 37 -3z m-2580 -37 c30 -21 41 -58 18 -58 -6 0 -26 12 -45 26 -27 21 -32 29
-22 40 15 18 14 18 49 -8z m2500 3 c0 -10 -25 -21 -48 -21 -15 1 -14 3 2 15
22 17 46 20 46 6z m-90 -31 c0 -5 -10 -10 -22 -9 -22 0 -22 1 -3 9 11 5 21 9
23 9 1 1 2 -3 2 -9z m-834 -53 c-24 -29 -56 -73 -70 -97 -14 -25 -26 -39 -26
-32 0 37 -74 -18 -127 -95 -32 -47 -39 -52 -43 -34 -5 19 -9 18 -81 -24 -69
-41 -80 -45 -115 -37 l-39 8 55 28 c74 38 284 179 395 265 50 38 91 70 93 70
2 1 -17 -23 -42 -52z m1424 29 c-43 -24 -199 -76 -303 -101 -117 -29 -107 -28
-107 -12 0 21 333 125 405 126 l30 0 -25 -13z m-3080 -75 c0 -6 -4 -13 -10
-16 -5 -3 -10 1 -10 9 0 9 5 16 10 16 6 0 10 -4 10 -9z m2650 -46 c0 -10 -10
-15 -30 -15 -36 0 -38 7 -7 20 32 13 37 12 37 -5z m-80 -15 c0 -5 -4 -10 -9
-10 -5 0 -16 -3 -25 -6 -9 -3 -16 -1 -16 4 0 9 16 17 43 21 4 0 7 -3 7 -9z
m-85 -20 c-3 -5 -13 -10 -21 -10 -8 0 -14 5 -14 10 0 6 9 10 21 10 11 0 17 -4
14 -10z m-88 -16 c-3 -3 -12 -4 -19 -1 -8 3 -5 6 6 6 11 1 17 -2 13 -5z
m-2521 -116 c-37 -88 -86 -263 -86 -304 0 -12 -5 -26 -11 -29 -13 -8 -6 34 27
160 22 89 92 270 101 262 2 -3 -12 -43 -31 -89z m200 -12 c-36 -75 -59 -107
-32 -43 26 62 60 127 64 123 2 -3 -13 -38 -32 -80z m475 18 c-46 -8 -106 -26
-134 -40 -48 -24 -50 -24 -32 -4 39 43 87 58 185 58 l65 0 -84 -14z m2407 -5
c29 -12 50 -25 47 -29 -2 -4 -46 -10 -97 -14 -51 -4 -119 -9 -150 -13 -52 -5
-58 -4 -59 13 -1 17 -2 17 -6 2 -6 -23 -63 -25 -63 -3 0 8 10 17 23 19 118 23
225 43 238 45 9 0 39 -9 67 -20z m-340 -41 c-5 -15 -58 -24 -58 -10 0 15 12
22 38 22 14 0 22 -5 20 -12z m-158 -6 c0 -14 -11 -21 -26 -15 -8 3 -11 9 -8
14 7 11 34 12 34 1z m80 -1 c0 -12 -29 -23 -41 -15 -18 10 -9 24 16 24 14 0
25 -4 25 -9z m-233 -7 c-3 -3 -12 -4 -19 -1 -8 3 -5 6 6 6 11 1 17 -2 13 -5z
m70 0 c-3 -3 -12 -4 -19 -1 -8 3 -5 6 6 6 11 1 17 -2 13 -5z m-2177 -48 c-61
-22 -50 -41 42 -71 146 -49 228 -98 228 -137 0 -36 -31 -78 -88 -119 -31 -23
-79 -62 -106 -88 -26 -25 -44 -37 -38 -25 6 11 47 56 92 100 98 95 104 105 88
138 -21 48 -219 124 -348 134 l-85 7 55 27 c30 15 80 32 110 37 77 12 91 12
50 -3z m236 3 c10 -17 -13 -36 -27 -22 -12 12 -4 33 11 33 5 0 12 -5 16 -11z
m-161 -39 c-3 -5 -12 -10 -18 -10 -7 0 -6 4 3 10 19 12 23 12 15 0z m250 -40
c-37 -38 -65 -51 -65 -30 0 9 87 69 100 70 2 0 -14 -18 -35 -40z m-55 25 c0
-11 -40 -24 -57 -18 -14 6 -11 9 17 14 19 4 36 7 38 8 1 0 2 -1 2 -4z m-485
-126 c-7 -33 -16 -63 -19 -66 -9 -9 -7 17 5 62 14 54 18 65 22 65 3 0 -1 -27
-8 -61z m185 41 c111 -31 213 -71 203 -81 -14 -14 -103 -27 -236 -35 -105 -6
-127 -5 -127 7 1 15 18 96 25 117 6 17 50 15 135 -8z m2240 -21 c0 -5 -7 -9
-15 -9 -15 0 -20 12 -9 23 8 8 24 -1 24 -14z m70 -4 c0 -8 -9 -15 -20 -15 -20
0 -26 11 -13 23 12 13 33 7 33 -8z m70 1 c0 -8 -5 -18 -10 -21 -17 -11 -40 3
-34 20 8 19 44 20 44 1z m70 5 c0 -25 -13 -38 -34 -34 -32 7 -23 43 10 43 13
0 24 -4 24 -9z m255 -7 c13 -8 26 -22 29 -30 5 -12 -14 -14 -136 -9 -78 3
-144 7 -146 9 -2 3 1 14 8 25 10 19 20 21 116 21 78 0 111 -4 129 -16z m-3552
-120 l112 -24 -74 5 c-70 5 -215 46 -236 66 -5 5 12 2 38 -7 26 -9 98 -27 160
-40z m562 -44 c61 -5 161 -10 223 -11 81 -1 112 -4 109 -12 -2 -7 -36 -14 -85
-17 -61 -4 -86 -10 -103 -25 -22 -20 -22 -20 -15 1 5 18 2 22 -25 28 -48 9
-114 7 -146 -5 -23 -8 -26 -8 -15 2 18 19 15 29 -10 30 -13 0 -41 7 -63 14
-31 11 -34 13 -10 10 17 -3 80 -9 140 -15z m745 -66 c47 -13 119 -28 160 -32
71 -8 73 -9 41 -18 l-35 -10 36 -27 c34 -27 88 -94 88 -111 0 -5 -9 3 -20 17
-38 48 -120 99 -228 141 -95 38 -199 87 -147 71 11 -4 58 -17 105 -31z m1700
12 c0 -3 -4 -8 -10 -11 -5 -3 -10 -1 -10 4 0 6 5 11 10 11 6 0 10 -2 10 -4z
m54 -21 c-4 -8 -10 -12 -15 -9 -14 8 -10 24 6 24 9 0 12 -6 9 -15z m60 -10
c-4 -8 -12 -15 -20 -15 -8 0 -14 7 -14 15 0 8 9 15 20 15 13 0 18 -5 14 -15z
m50 9 c20 -8 9 -34 -15 -34 -21 0 -22 1 -13 24 7 18 7 18 28 10z m176 -26 c68
-47 48 -52 -99 -27 -63 10 -64 11 -55 33 10 26 112 22 154 -6z m-3315 -92
l180 1 -80 -14 c-107 -19 -309 -22 -357 -5 -63 22 -57 34 14 25 34 -4 144 -7
243 -7z m212 8 c-3 -3 -12 -4 -19 -1 -8 3 -5 6 6 6 11 1 17 -2 13 -5z m3086
-121 c-30 -186 -72 -322 -144 -466 -51 -100 -148 -252 -156 -243 -3 2 18 37
45 78 67 98 113 184 157 296 36 92 85 283 85 335 0 15 4 27 9 27 4 0 6 -12 4
-27z m-3063 -11 c-8 -3 -23 -9 -32 -14 -12 -6 -18 -5 -18 2 0 13 41 30 55 22
5 -3 2 -8 -5 -10z m2662 -4 c-7 -7 -12 -8 -12 -2 0 6 3 14 7 17 3 4 9 5 12 2
2 -3 -1 -11 -7 -17z m61 -3 c-3 -8 -12 -15 -19 -15 -12 0 -12 4 -4 20 12 23
32 18 23 -5z m53 4 c7 -12 -22 -46 -32 -37 -8 9 5 48 16 48 5 0 12 -5 16 -11z
m120 -14 c35 -5 43 -11 47 -33 3 -15 3 -29 1 -31 -5 -5 -154 26 -161 33 -3 2
1 14 7 26 9 16 18 20 38 16 15 -3 46 -8 68 -11z m-2966 -5 c0 -12 -33 -30 -54
-30 -23 0 -19 15 7 28 28 14 47 15 47 2z m315 -20 c-3 -5 -14 -10 -23 -10 -15
0 -15 2 -2 10 20 13 33 13 25 0z m-388 -16 c5 -16 -172 -73 -261 -84 -44 -5
-81 -8 -83 -6 -2 2 47 15 109 30 62 15 136 38 163 51 52 24 66 26 72 9z m319
-29 c-22 -17 -36 -19 -36 -7 0 14 12 22 34 22 21 -1 21 -1 2 -15z m-59 -32 c5
-14 -33 -27 -48 -17 -9 5 -6 11 7 21 20 14 36 13 41 -4z m-63 -32 c3 -5 -6
-16 -20 -26 -20 -13 -28 -14 -40 -4 -12 10 -12 13 3 25 21 15 49 18 57 5z
m-71 -52 c-11 -11 -123 -72 -218 -120 l-80 -40 36 33 c20 18 83 61 140 95 78
47 107 59 117 51 7 -6 9 -15 5 -19z m2617 10 c-7 -11 -14 -19 -16 -16 -7 7 7
37 17 37 6 0 5 -9 -1 -21z m-944 -25 c140 -76 188 -96 221 -92 22 3 33 0 33
-9 0 -20 -35 -33 -85 -33 -41 0 -46 -2 -40 -17 22 -56 18 -80 -18 -119 -38
-42 -39 -41 -36 29 1 41 0 52 -13 99 -10 40 -18 50 -48 62 -30 12 -40 12 -70
0 -38 -16 -52 -32 -45 -51 2 -7 0 -13 -6 -13 -5 0 -12 7 -15 15 -9 24 -44 -1
-44 -31 0 -14 -4 -22 -10 -19 -5 3 -10 30 -10 60 0 46 4 56 26 74 15 12 32 21
39 21 7 0 20 11 29 25 21 31 31 31 92 -1z m992 14 c-3 -7 -12 -14 -21 -16 -12
-2 -15 1 -11 12 7 19 38 22 32 4z m142 -85 c-17 -43 -41 -94 -52 -113 -42 -72
-123 -190 -130 -190 -4 0 17 36 47 81 61 89 100 162 136 257 13 34 25 58 27
53 2 -5 -11 -45 -28 -88z m-2580 72 c-7 -8 -18 -15 -24 -15 -6 0 -2 7 8 15 25
19 32 19 16 0z m2520 -13 c0 -16 -3 -31 -6 -35 -5 -5 -58 16 -73 29 -11 10 25
34 50 34 25 0 29 -4 29 -28z m-2585 -42 c-10 -11 -22 -17 -28 -13 -5 3 1 14
14 24 30 22 38 16 14 -11z m255 5 c0 -8 -7 -15 -16 -15 -14 0 -14 3 -4 15 7 8
14 15 16 15 2 0 4 -7 4 -15z m-294 -33 c-3 -5 -59 -55 -126 -111 -104 -88
-120 -99 -120 -78 0 13 6 30 13 38 26 32 159 120 173 115 9 -3 12 -1 9 5 -4 6
1 17 11 24 21 16 48 20 40 7z m254 -16 c0 -18 -17 -29 -30 -21 -8 5 -7 11 1
21 15 18 29 18 29 0z m2339 -48 c-30 -61 -122 -198 -133 -198 -5 0 -25 12 -45
27 -20 14 -37 27 -39 29 -2 1 14 29 35 62 32 51 47 65 93 85 110 49 116 49 89
-5z m-1364 -8 c44 -22 84 -40 89 -40 5 0 17 -7 26 -15 9 -8 34 -21 56 -29 37
-13 38 -14 14 -20 -14 -3 -38 -7 -55 -10 -20 -2 -29 -8 -26 -17 3 -8 6 -32 8
-54 3 -34 -1 -45 -27 -72 -17 -18 -32 -33 -33 -33 -1 0 -1 21 0 47 0 27 -6 74
-15 105 -15 50 -22 59 -52 72 -30 12 -39 12 -70 -3 -41 -19 -50 -29 -43 -48 3
-7 1 -13 -5 -13 -6 0 -12 6 -15 13 -7 18 -41 -5 -45 -32 -6 -38 -22 -12 -22
35 0 57 11 78 49 94 17 6 37 23 46 36 8 13 21 24 28 24 7 0 48 -18 92 -40z
m-1021 12 c8 -14 -19 -41 -34 -32 -11 7 -11 11 -1 24 15 17 27 20 35 8z m-41
-48 c8 -9 -15 -44 -30 -44 -19 0 -26 20 -13 35 13 16 32 19 43 9z m251 -19
c-6 -16 -24 -21 -24 -7 0 11 11 22 21 22 5 0 6 -7 3 -15z m-296 -28 c9 -10 -1
-28 -41 -77 l-52 -63 -9 32 c-8 30 -6 35 34 77 48 48 52 50 68 31z m272 -16
c0 -5 -6 -14 -14 -20 -16 -13 -32 2 -21 19 8 12 35 13 35 1z m-30 -51 c0 -4
-7 -13 -15 -20 -22 -18 -44 2 -26 24 12 14 41 12 41 -4z m244 -1 c-3 -5 -10
-7 -15 -3 -5 3 -7 10 -3 15 3 5 10 7 15 3 5 -3 7 -10 3 -15z m-279 -39 c5 -7
-30 -80 -52 -109 -6 -8 -33 22 -33 37 0 8 11 30 26 49 25 33 47 42 59 23z
m255 -5 c0 -8 -7 -15 -15 -15 -16 0 -20 12 -8 23 11 12 23 8 23 -8z m-26 -31
c20 -8 9 -34 -15 -34 -18 0 -26 20 -12 33 8 8 8 8 27 1z m-25 -43 c11 -7 11
-16 -4 -55 -22 -58 -30 -63 -50 -32 -15 23 -15 27 7 60 25 39 27 40 47 27z
m281 -7 c0 -8 -4 -12 -10 -9 -5 3 -10 10 -10 16 0 5 5 9 10 9 6 0 10 -7 10
-16z m1646 -32 c-4 -3 -14 2 -24 12 -16 18 -16 18 6 6 13 -6 21 -14 18 -18z
m-1658 -10 c2 -7 -5 -12 -17 -12 -14 0 -19 5 -14 15 6 17 25 15 31 -3z m1737
-25 c13 -11 15 -16 6 -22 -8 -4 -21 1 -34 14 -17 16 -18 21 -6 21 8 0 23 -6
34 -13z m-1745 -18 c0 -6 -4 -7 -10 -4 -5 3 -10 11 -10 16 0 6 5 7 10 4 6 -3
10 -11 10 -16z m576 4 c-2 -10 -19 -72 -37 -138 -18 -66 -35 -123 -38 -127 -8
-9 -137 23 -208 51 -63 25 -197 92 -238 120 -26 18 -27 21 -10 26 11 4 44 15
72 27 l53 20 25 -30 c23 -28 28 -29 65 -21 47 11 127 47 136 61 3 5 17 -1 30
-13 l25 -23 62 31 c75 38 69 37 63 16z m-725 -224 c146 -111 318 -196 489
-240 86 -23 134 -45 70 -33 -67 13 -239 73 -323 113 -132 63 -262 155 -379
270 -60 57 -108 109 -108 114 0 6 40 -30 88 -79 48 -49 122 -114 163 -145z
m1983 191 c10 -10 -1 -30 -17 -30 -20 1 -49 28 -42 40 7 11 42 5 59 -10z
m-1852 -55 c40 -31 123 -80 183 -110 101 -49 264 -105 307 -105 10 0 18 -5 18
-11 0 -6 -8 -8 -17 -5 -10 3 -47 12 -83 21 -136 35 -298 114 -428 209 -56 41
-71 56 -58 56 3 0 38 -25 78 -55z m1913 23 c28 -13 32 -30 10 -48 -13 -10 -19
-9 -38 6 -12 10 -23 19 -25 20 -6 3 11 34 19 34 4 0 20 -5 34 -12z m-324 -25
c13 -17 13 -17 -6 -3 -11 8 -22 16 -24 17 -2 2 0 3 6 3 6 0 17 -8 24 -17z
m405 -12 c24 -15 33 -28 38 -61 4 -24 5 -45 2 -47 -6 -6 -106 69 -106 79 0 11
23 48 30 48 3 0 19 -9 36 -19z m-325 -44 c-5 -5 -17 -4 -30 3 -30 15 -16 32
15 18 15 -7 21 -15 15 -21z m79 -43 c0 -22 -18 -25 -45 -8 -19 13 -23 20 -14
30 13 16 59 -1 59 -22z m70 -33 c12 -8 12 -13 -4 -30 -17 -19 -20 -19 -42 -4
-26 17 -30 33 -12 51 11 11 20 8 58 -17z m130 -123 c0 -27 -3 -48 -6 -48 -4 0
-27 17 -52 38 -24 20 -54 44 -65 53 -20 16 -20 18 -4 42 l17 26 55 -32 c54
-32 55 -33 55 -79z m-539 85 c13 -16 12 -17 -3 -4 -17 13 -22 21 -14 21 2 0
10 -8 17 -17z m60 -59 c12 -14 11 -16 -5 -13 -11 2 -21 10 -24 17 -5 17 13 15
29 -4z m-234 -56 c-3 -8 -6 -5 -6 6 -1 11 2 17 5 13 3 -3 4 -12 1 -19z m283 7
c10 -13 11 -18 1 -28 -10 -9 -15 -8 -26 7 -23 31 1 50 25 21z m50 -57 c19 -21
20 -24 4 -35 -14 -10 -20 -8 -34 10 -13 16 -15 26 -8 35 14 16 14 16 38 -10z
m-300 -13 c0 -8 -4 -15 -10 -15 -5 0 -10 7 -10 15 0 8 5 15 10 15 6 0 10 -7
10 -15z m409 -99 l74 -75 -12 -40 c-6 -23 -15 -41 -19 -41 -4 0 -30 33 -58 73
-38 53 -49 75 -42 85 8 9 7 11 -4 7 -8 -3 -22 3 -33 14 -14 17 -15 23 -5 36 7
8 15 15 19 15 4 0 40 -34 80 -74z m-382 39 c8 -22 -6 -33 -17 -15 -13 20 -12
30 0 30 6 0 13 -7 17 -15z m-250 -17 c-3 -8 -6 -5 -6 6 -1 11 2 17 5 13 3 -3
4 -12 1 -19z m278 -49 c8 -23 1 -34 -14 -24 -13 8 -15 45 -2 45 5 0 13 -9 16
-21z m-255 -10 c0 -11 -4 -17 -10 -14 -5 3 -10 13 -10 21 0 8 5 14 10 14 6 0
10 -9 10 -21z m-395 -9 c3 -5 1 -10 -4 -10 -6 0 -11 5 -11 10 0 6 2 10 4 10 3
0 8 -4 11 -10z m175 -6 c0 -8 -5 -12 -10 -9 -6 4 -8 11 -5 16 9 14 15 11 15
-7z m238 -42 c2 -12 -1 -22 -7 -22 -6 0 -11 4 -11 9 0 5 -3 17 -7 27 -4 12 -2
15 8 12 8 -2 15 -14 17 -26z m272 -24 c0 -5 -6 -8 -14 -8 -15 0 -29 38 -19 53
5 9 32 -28 33 -45z m-693 20 c-3 -8 -6 -5 -6 6 -1 11 2 17 5 13 3 -3 4 -12 1
-19z m180 -10 c-3 -8 -6 -5 -6 6 -1 11 2 17 5 13 3 -3 4 -12 1 -19z m258 -39
c8 -23 1 -34 -14 -24 -13 8 -15 45 -2 45 5 0 13 -9 16 -21z m-245 -4 c0 -8 -4
-15 -10 -15 -5 0 -10 7 -10 15 0 8 5 15 10 15 6 0 10 -7 10 -15z m527 -47 c46
-140 43 -145 -11 -20 -24 57 -31 82 -22 82 7 0 22 -28 33 -62z m-527 -23 c0
-19 -2 -35 -4 -35 -2 0 -6 16 -8 35 -2 19 0 35 4 35 4 0 8 -16 8 -35z m260 28
c0 -5 6 -41 14 -82 17 -90 5 -81 -22 17 -17 59 -18 72 -6 72 8 0 14 -3 14 -7z"/>
<path d="M2615 4370 c3 -5 8 -10 11 -10 2 0 4 5 4 10 0 6 -5 10 -11 10 -5 0
-7 -4 -4 -10z"/>
<path d="M1965 3890 c3 -5 8 -10 11 -10 2 0 4 5 4 10 0 6 -5 10 -11 10 -5 0
-7 -4 -4 -10z"/>
</g>
</svg>
