<?xml version="1.0" standalone="no"?>
<!DOCTYPE svg PUBLIC "-//W3C//DTD SVG 20010904//EN"
 "http://www.w3.org/TR/2001/REC-SVG-20010904/DTD/svg10.dtd">
<svg version="1.0" xmlns="http://www.w3.org/2000/svg"
 width="511.000000pt" height="430.000000pt" viewBox="0 0 511.000000 430.000000"
 preserveAspectRatio="xMidYMid meet">

<g transform="translate(0.000000,430.000000) scale(0.100000,-0.100000)"
fill="#000000" stroke="none">
<path d="M1240 4294 c-328 -40 -613 -255 -884 -671 -176 -269 -280 -598 -330
-1043 -55 -498 -9 -1003 129 -1417 153 -459 381 -727 804 -942 549 -280 1237
-289 2016 -26 465 156 960 416 1287 677 417 332 724 801 820 1253 31 151 29
356 -5 488 -54 203 -172 393 -367 588 -256 257 -489 358 -1046 453 -109 19
-289 44 -399 56 -566 60 -760 108 -1045 257 -437 229 -563 284 -717 313 -63
11 -215 20 -263 14z"/>
</g>
</svg>
